BitterPro-ThinItalic.ufo
<glyph name="three" format="2">
  <advance width="541"/>
  <unicode hex="0033"/>
  <outline>
    <contour>
      <point x="197" y="-5" type="curve" smooth="yes"/>
      <point x="339" y="-5"/>
      <point x="443" y="92"/>
      <point x="443" y="223" type="curve" smooth="yes"/>
      <point x="443" y="308"/>
      <point x="399" y="360"/>
      <point x="299" y="368" type="curve"/>
      <point x="300" y="367" type="line"/>
      <point x="408" y="382"/>
      <point x="481" y="448"/>
      <point x="481" y="559" type="curve" smooth="yes"/>
      <point x="481" y="662"/>
      <point x="417" y="698"/>
      <point x="327" y="698" type="curve" smooth="yes"/>
      <point x="271" y="698"/>
      <point x="203" y="684"/>
      <point x="136" y="661" type="curve"/>
      <point x="122" y="527" type="line"/>
      <point x="137" y="527" type="line"/>
      <point x="168" y="659" type="line"/>
      <point x="161" y="651" type="line"/>
      <point x="216" y="668"/>
      <point x="273" y="679"/>
      <point x="322" y="679" type="curve" smooth="yes"/>
      <point x="401" y="679"/>
      <point x="460" y="650"/>
      <point x="460" y="558" type="curve" smooth="yes"/>
      <point x="460" y="452"/>
      <point x="383" y="378"/>
      <point x="254" y="378" type="curve" smooth="yes"/>
      <point x="181" y="378" type="line"/>
      <point x="178" y="358" type="line"/>
      <point x="247" y="358" type="line" smooth="yes"/>
      <point x="379" y="358"/>
      <point x="423" y="300"/>
      <point x="423" y="220" type="curve" smooth="yes"/>
      <point x="423" y="104"/>
      <point x="331" y="15"/>
      <point x="201" y="15" type="curve" smooth="yes"/>
      <point x="141" y="15"/>
      <point x="84" y="34"/>
      <point x="34" y="71" type="curve"/>
      <point x="22" y="52" type="line"/>
      <point x="74" y="13"/>
      <point x="136" y="-5"/>
    </contour>
  </outline>
</glyph>
<glyph name="five" format="2">
  <advance width="510"/>
  <unicode hex="0035"/>
  <outline>
    <contour>
      <point x="189" y="-6" type="curve" smooth="yes"/>
      <point x="336" y="-6"/>
      <point x="444" y="110"/>
      <point x="444" y="242" type="curve" smooth="yes"/>
      <point x="444" y="401"/>
      <point x="287" y="401"/>
      <point x="195" y="401" type="curve" smooth="yes"/>
      <point x="140" y="401" type="line"/>
      <point x="146" y="394" type="line"/>
      <point x="202" y="679" type="line"/>
      <point x="194" y="672" type="line"/>
      <point x="486" y="672" type="line"/>
      <point x="489" y="692" type="line"/>
      <point x="185" y="692" type="line"/>
      <point x="122" y="381" type="line"/>
      <point x="181" y="381" type="line" smooth="yes"/>
      <point x="286" y="381"/>
      <point x="423" y="381"/>
      <point x="423" y="241" type="curve" smooth="yes"/>
      <point x="423" y="124"/>
      <point x="327" y="15"/>
      <point x="191" y="15" type="curve" smooth="yes"/>
      <point x="144" y="15"/>
      <point x="91" y="28"/>
      <point x="38" y="59" type="curve"/>
      <point x="28" y="39" type="line"/>
      <point x="83" y="8"/>
      <point x="138" y="-6"/>
    </contour>
  </outline>
</glyph>
<glyph name="at" format="2">
  <advance width="859"/>
  <unicode hex="0040"/>
  <guideline x="570" y="362" angle="261"/>
  <guideline x="550" y="362" angle="261.0983"/>
  <outline>
    <contour>
      <point x="350" y="-105" type="curve" smooth="yes"/>
      <point x="403" y="-105"/>
      <point x="462" y="-93"/>
      <point x="517" y="-70" type="curve"/>
      <point x="511" y="-53" type="line"/>
      <point x="458" y="-74"/>
      <point x="403" y="-85"/>
      <point x="354" y="-85" type="curve" smooth="yes"/>
      <point x="204" y="-85"/>
      <point x="117" y="16"/>
      <point x="117" y="188" type="curve" smooth="yes"/>
      <point x="117" y="410"/>
      <point x="264" y="615"/>
      <point x="498" y="615" type="curve" smooth="yes"/>
      <point x="664" y="615"/>
      <point x="756" y="512"/>
      <point x="756" y="351" type="curve" smooth="yes"/>
      <point x="756" y="228"/>
      <point x="702" y="87"/>
      <point x="603" y="87" type="curve" smooth="yes"/>
      <point x="548" y="87"/>
      <point x="534" y="131"/>
      <point x="544" y="196" type="curve" smooth="yes"/>
      <point x="587" y="466" type="line"/>
      <point x="576" y="466" type="line"/>
      <point x="562" y="436" type="line"/>
      <point x="577" y="438" type="line"/>
      <point x="536" y="464"/>
      <point x="500" y="472"/>
      <point x="468" y="472" type="curve" smooth="yes"/>
      <point x="347" y="472"/>
      <point x="258" y="354"/>
      <point x="258" y="212" type="curve" smooth="yes"/>
      <point x="258" y="112"/>
      <point x="303" y="68"/>
      <point x="359" y="68" type="curve" smooth="yes"/>
      <point x="417" y="68"/>
      <point x="500" y="118"/>
      <point x="544" y="239" type="curve"/>
      <point x="525" y="205" type="line"/>
      <point x="511" y="113"/>
      <point x="538" y="68"/>
      <point x="600" y="68" type="curve" smooth="yes"/>
      <point x="716" y="68"/>
      <point x="777" y="220"/>
      <point x="777" y="355" type="curve" smooth="yes"/>
      <point x="777" y="526"/>
      <point x="676" y="635"/>
      <point x="502" y="635" type="curve" smooth="yes"/>
      <point x="255" y="635"/>
      <point x="96" y="424"/>
      <point x="96" y="186" type="curve" smooth="yes"/>
      <point x="96" y="5"/>
      <point x="188" y="-105"/>
    </contour>
    <contour>
      <point x="361" y="87" type="curve" smooth="yes"/>
      <point x="314" y="87"/>
      <point x="279" y="125"/>
      <point x="279" y="212" type="curve" smooth="yes"/>
      <point x="279" y="344"/>
      <point x="358" y="453"/>
      <point x="467" y="453" type="curve" smooth="yes"/>
      <point x="501" y="453"/>
      <point x="537" y="441"/>
      <point x="574" y="421" type="curve"/>
      <point x="561" y="433" type="line"/>
      <point x="544" y="324" type="line" smooth="yes"/>
      <point x="518" y="158"/>
      <point x="425" y="87"/>
    </contour>
  </outline>
</glyph>
<glyph name="E" format="2">
  <advance width="617"/>
  <unicode hex="0045"/>
  <guideline x="725" y="116" angle="90"/>
  <guideline x="173" y="231" angle="261"/>
  <guideline x="154" y="231" angle="261"/>
  <anchor x="269" y="0" name="bottom"/>
  <anchor x="491" y="0" name="ogonek"/>
  <anchor x="388" y="692" name="top"/>
  <anchor x="106" y="692" name="topleft"/>
  <outline>
    <contour>
      <point x="499" y="141" type="line"/>
      <point x="464" y="12" type="line"/>
      <point x="473" y="19" type="line"/>
      <point x="133" y="19" type="line"/>
      <point x="139" y="16" type="line"/>
      <point x="193" y="355" type="line"/>
      <point x="185" y="346" type="line"/>
      <point x="468" y="346" type="line"/>
      <point x="471" y="365" type="line"/>
      <point x="188" y="365" type="line"/>
      <point x="193" y="356" type="line"/>
      <point x="244" y="678" type="line"/>
      <point x="236" y="673" type="line"/>
      <point x="564" y="673" type="line"/>
      <point x="557" y="680" type="line"/>
      <point x="552" y="556" type="line"/>
      <point x="567" y="556" type="line"/>
      <point x="588" y="692" type="line"/>
      <point x="247" y="692" type="line"/>
      <point x="130" y="687" type="line"/>
      <point x="128" y="672" type="line"/>
      <point x="229" y="663" type="line"/>
      <point x="223" y="671" type="line"/>
      <point x="120" y="21" type="line"/>
      <point x="129" y="29" type="line"/>
      <point x="24" y="15" type="line"/>
      <point x="22" y="0" type="line"/>
      <point x="491" y="0" type="line"/>
      <point x="513" y="141" type="line"/>
    </contour>
  </outline>
</glyph>
<glyph name="bracketright" format="2">
  <advance width="314"/>
  <unicode hex="005D"/>
  <guideline x="-344" y="-94" angle="0"/>
  <guideline x="207" y="817" angle="0"/>
  <outline>
    <contour>
      <point x="314" y="838" type="line"/>
      <point x="137" y="833" type="line"/>
      <point x="134" y="817" type="line"/>
      <point x="291" y="815" type="line"/>
      <point x="151" y="-71" type="line"/>
      <point x="-7" y="-73" type="line"/>
      <point x="-9" y="-89" type="line"/>
      <point x="166" y="-94" type="line"/>
    </contour>
  </outline>
</glyph>
<glyph name="f" format="2">
  <advance width="287"/>
  <unicode hex="0066"/>
  <guideline x="176" y="472" angle="261"/>
  <guideline x="156" y="472" angle="261"/>
  <outline>
    <contour>
      <point x="-58" y="-236" type="curve" smooth="yes"/>
      <point x="65" y="-236"/>
      <point x="80" y="-133"/>
      <point x="89" y="-76" type="curve" smooth="yes"/>
      <point x="181" y="504" type="line"/>
      <point x="173" y="499" type="line"/>
      <point x="326" y="499" type="line"/>
      <point x="329" y="518" type="line"/>
      <point x="176" y="518" type="line"/>
      <point x="182" y="510" type="line"/>
      <point x="198" y="612" type="line" smooth="yes"/>
      <point x="213" y="707"/>
      <point x="268" y="749"/>
      <point x="340" y="749" type="curve" smooth="yes"/>
      <point x="363" y="749"/>
      <point x="389" y="745"/>
      <point x="416" y="736" type="curve"/>
      <point x="396" y="732" type="line"/>
      <point x="409" y="768" type="line"/>
      <point x="421" y="756" type="line"/>
      <point x="395" y="764"/>
      <point x="368" y="768"/>
      <point x="344" y="768" type="curve" smooth="yes"/>
      <point x="263" y="768"/>
      <point x="195" y="723"/>
      <point x="178" y="613" type="curve" smooth="yes"/>
      <point x="162" y="511" type="line"/>
      <point x="170" y="518" type="line"/>
      <point x="76" y="513" type="line"/>
      <point x="74" y="499" type="line"/>
      <point x="167" y="499" type="line"/>
      <point x="161" y="505" type="line"/>
      <point x="69" y="-77" type="line" smooth="yes"/>
      <point x="59" y="-140"/>
      <point x="46" y="-217"/>
      <point x="-64" y="-217" type="curve" smooth="yes"/>
      <point x="-77" y="-217"/>
      <point x="-87" y="-216"/>
      <point x="-90" y="-216" type="curve"/>
      <point x="-93" y="-234" type="line"/>
      <point x="-81" y="-235"/>
      <point x="-70" y="-236"/>
    </contour>
  </outline>
</glyph>
<glyph name="v" format="2">
  <advance width="476"/>
  <unicode hex="0076"/>
  <outline>
    <contour>
      <point x="192" y="-2" type="line"/>
      <point x="211" y="-2" type="line"/>
      <point x="466" y="503" type="line"/>
      <point x="453" y="497" type="line"/>
      <point x="519" y="510" type="line"/>
      <point x="521" y="525" type="line"/>
      <point x="368" y="520" type="line"/>
      <point x="366" y="505" type="line"/>
      <point x="448" y="498" type="line"/>
      <point x="445" y="503" type="line"/>
      <point x="204" y="23" type="line"/>
      <point x="206" y="23" type="line"/>
      <point x="107" y="525" type="line"/>
      <point x="34" y="520" type="line"/>
      <point x="31" y="505" type="line"/>
      <point x="100" y="497" type="line"/>
      <point x="92" y="503" type="line"/>
    </contour>
  </outline>
</glyph>
<glyph name="guillemetright" format="2">
  <advance width="432"/>
  <unicode hex="00BB"/>
  <guideline x="-330" y="75" angle="0"/>
  <outline>
    <contour>
      <point x="267" y="460" type="line"/>
      <point x="253" y="450" type="line"/>
      <point x="358" y="263" type="line"/>
      <point x="360" y="277" type="line"/>
      <point x="197" y="92" type="line"/>
      <point x="208" y="81" type="line"/>
      <point x="372" y="260" type="line"/>
      <point x="375" y="281" type="line"/>
    </contour>
    <contour>
      <point x="114" y="460" type="line"/>
      <point x="100" y="450" type="line"/>
      <point x="205" y="263" type="line"/>
      <point x="207" y="277" type="line"/>
      <point x="44" y="92" type="line"/>
      <point x="55" y="81" type="line"/>
      <point x="219" y="260" type="line"/>
      <point x="222" y="281" type="line"/>
    </contour>
  </outline>
</glyph>
<glyph name="napostrophe" format="2">
  <advance width="732"/>
  <unicode hex="0149"/>
  <outline>
    <contour>
      <point x="148" y="743" type="curve" smooth="yes"/>
      <point x="148" y="729"/>
      <point x="157" y="723"/>
      <point x="157" y="710" type="curve" smooth="yes"/>
      <point x="157" y="698"/>
      <point x="149" y="669"/>
      <point x="112" y="614" type="curve"/>
      <point x="123" y="604" type="line"/>
      <point x="157" y="650"/>
      <point x="195" y="714"/>
      <point x="195" y="746" type="curve" smooth="yes"/>
      <point x="195" y="763"/>
      <point x="185" y="771"/>
      <point x="174" y="771" type="curve" smooth="yes"/>
      <point x="161" y="771"/>
      <point x="148" y="761"/>
    </contour>
    <component base="n" xOffset="138"/>
  </outline>
</glyph>
<glyph name="Eng" format="2">
  <advance width="782"/>
  <unicode hex="014A"/>
  <outline>
    <contour>
      <point x="578" y="26" type="line"/>
      <point x="561" y="-77" type="line" smooth="yes"/>
      <point x="544" y="-182"/>
      <point x="513" y="-217"/>
      <point x="430" y="-217" type="curve" smooth="yes"/>
      <point x="422" y="-217"/>
      <point x="412" y="-217"/>
      <point x="402" y="-216" type="curve"/>
      <point x="399" y="-234" type="line"/>
      <point x="411" y="-235"/>
      <point x="421" y="-236"/>
      <point x="434" y="-236" type="curve" smooth="yes"/>
      <point x="525" y="-236"/>
      <point x="563" y="-187"/>
      <point x="581" y="-75" type="curve" smooth="yes"/>
      <point x="699" y="671" type="line"/>
      <point x="691" y="663" type="line"/>
      <point x="796" y="677" type="line"/>
      <point x="798" y="692" type="line"/>
      <point x="586" y="687" type="line"/>
      <point x="584" y="672" type="line"/>
      <point x="685" y="663" type="line"/>
      <point x="680" y="672" type="line"/>
      <point x="579" y="30" type="line"/>
      <point x="582" y="31" type="line"/>
      <point x="250" y="692" type="line"/>
      <point x="130" y="687" type="line"/>
      <point x="128" y="672" type="line"/>
      <point x="229" y="663" type="line"/>
      <point x="224" y="671" type="line"/>
      <point x="121" y="21" type="line"/>
      <point x="129" y="29" type="line"/>
      <point x="24" y="15" type="line"/>
      <point x="22" y="0" type="line"/>
      <point x="233" y="0" type="line"/>
      <point x="235" y="15" type="line"/>
      <point x="135" y="29" type="line"/>
      <point x="140" y="21" type="line"/>
      <point x="243" y="670" type="line"/>
      <point x="239" y="669" type="line"/>
      <point x="577" y="-4" type="line"/>
    </contour>
  </outline>
</glyph>
<glyph name="Uhorn" format="2">
  <advance width="730"/>
  <unicode hex="01AF"/>
  <anchor x="331" y="0" name="bottom"/>
  <anchor x="440" y="692" name="top"/>
  <outline>
    <contour>
      <point x="324" y="-6" type="curve" smooth="yes"/>
      <point x="503" y="-6"/>
      <point x="571" y="89"/>
      <point x="597" y="253" type="curve" smooth="yes"/>
      <point x="664" y="678" type="line"/>
      <point x="656" y="672" type="line"/>
      <point x="732" y="666"/>
      <point x="771" y="709"/>
      <point x="771" y="775" type="curve" smooth="yes"/>
      <point x="771" y="789"/>
      <point x="769" y="805"/>
      <point x="765" y="821" type="curve"/>
      <point x="745" y="816" type="line"/>
      <point x="748" y="801"/>
      <point x="749" y="786"/>
      <point x="749" y="775" type="curve" smooth="yes"/>
      <point x="749" y="721"/>
      <point x="725" y="692"/>
      <point x="664" y="690" type="curve" smooth="yes"/>
      <point x="550" y="687" type="line"/>
      <point x="548" y="672" type="line"/>
      <point x="649" y="664" type="line"/>
      <point x="643" y="671" type="line"/>
      <point x="577" y="255" type="line" smooth="yes"/>
      <point x="553" y="102"/>
      <point x="494" y="13"/>
      <point x="325" y="13" type="curve" smooth="yes"/>
      <point x="198" y="13"/>
      <point x="148" y="63"/>
      <point x="148" y="167" type="curve" smooth="yes"/>
      <point x="148" y="193"/>
      <point x="151" y="216"/>
      <point x="155" y="244" type="curve" smooth="yes"/>
      <point x="223" y="671" type="line"/>
      <point x="215" y="663" type="line"/>
      <point x="320" y="677" type="line"/>
      <point x="322" y="692" type="line"/>
      <point x="109" y="687" type="line"/>
      <point x="107" y="672" type="line"/>
      <point x="209" y="663" type="line"/>
      <point x="203" y="671" type="line"/>
      <point x="135" y="246" type="line" smooth="yes"/>
      <point x="130" y="218"/>
      <point x="128" y="191"/>
      <point x="128" y="169" type="curve" smooth="yes"/>
      <point x="128" y="53"/>
      <point x="183" y="-6"/>
    </contour>
  </outline>
</glyph>
<glyph name="ringhalfright" format="2">
  <advance width="275"/>
  <unicode hex="02BE"/>
  <guideline x="271" y="868" angle="261"/>
  <guideline x="196" y="868" angle="261"/>
  <guideline x="234" y="868" angle="261"/>
  <anchor x="179" y="522" name="_top"/>
  <outline>
    <contour>
      <point x="158" y="627" type="line"/>
      <point x="203" y="627"/>
      <point x="245" y="659"/>
      <point x="245" y="710" type="curve" smooth="yes"/>
      <point x="245" y="753"/>
      <point x="214" y="770"/>
      <point x="181" y="770" type="curve"/>
      <point x="178" y="753" type="line"/>
      <point x="208" y="753"/>
      <point x="226" y="736"/>
      <point x="226" y="709" type="curve" smooth="yes"/>
      <point x="226" y="675"/>
      <point x="199" y="644"/>
      <point x="161" y="644" type="curve"/>
    </contour>
  </outline>
</glyph>
<glyph name="breve" format="2">
  <advance width="406"/>
  <unicode hex="02D8"/>
  <guideline x="156" y="649" angle="0"/>
  <guideline x="222" y="739" angle="0"/>
  <outline>
    <contour>
      <point x="266" y="640" type="curve" smooth="yes"/>
      <point x="318" y="640"/>
      <point x="372" y="672"/>
      <point x="382" y="738" type="curve"/>
      <point x="365" y="739" type="line"/>
      <point x="353" y="688"/>
      <point x="312" y="662"/>
      <point x="267" y="662" type="curve" smooth="yes"/>
      <point x="224" y="662"/>
      <point x="191" y="686"/>
      <point x="194" y="738" type="curve"/>
      <point x="176" y="738" type="line"/>
      <point x="168" y="674"/>
      <point x="212" y="640"/>
    </contour>
  </outline>
</glyph>
<glyph name="Pe-cy" format="2">
  <advance width="765"/>
  <unicode hex="041F"/>
  <anchor x="660" y="0" name="bottomright"/>
  <outline>
    <contour>
      <point x="23" y="0" type="line"/>
      <point x="235" y="0" type="line"/>
      <point x="237" y="15" type="line"/>
      <point x="137" y="29" type="line"/>
      <point x="142" y="21" type="line"/>
      <point x="246" y="678" type="line"/>
      <point x="237" y="672" type="line"/>
      <point x="657" y="673" type="line"/>
      <point x="651" y="678" type="line"/>
      <point x="547" y="21" type="line"/>
      <point x="555" y="29" type="line"/>
      <point x="450" y="15" type="line"/>
      <point x="448" y="0" type="line"/>
      <point x="660" y="0" type="line"/>
      <point x="662" y="15" type="line"/>
      <point x="561" y="29" type="line"/>
      <point x="567" y="21" type="line"/>
      <point x="670" y="671" type="line"/>
      <point x="661" y="663" type="line"/>
      <point x="768" y="677" type="line"/>
      <point x="770" y="692" type="line"/>
      <point x="247" y="692" type="line"/>
      <point x="131" y="687" type="line"/>
      <point x="129" y="672" type="line"/>
      <point x="231" y="663" type="line"/>
      <point x="225" y="671" type="line"/>
      <point x="122" y="21" type="line"/>
      <point x="131" y="29" type="line"/>
      <point x="25" y="15" type="line"/>
    </contour>
  </outline>
</glyph>
<glyph name="iu-cy" format="2">
  <advance width="772"/>
  <unicode hex="044E"/>
  <outline>
    <contour>
      <point x="138" y="284" type="line"/>
      <point x="135" y="265" type="line"/>
      <point x="287" y="265" type="line"/>
      <point x="290" y="284" type="line"/>
    </contour>
    <contour>
      <point x="533" y="528" type="curve" smooth="yes"/>
      <point x="366" y="528"/>
      <point x="276" y="367"/>
      <point x="276" y="205" type="curve" smooth="yes"/>
      <point x="276" y="58"/>
      <point x="347" y="-6"/>
      <point x="448" y="-6" type="curve" smooth="yes"/>
      <point x="616" y="-6"/>
      <point x="705" y="157"/>
      <point x="705" y="318" type="curve" smooth="yes"/>
      <point x="705" y="461"/>
      <point x="637" y="528"/>
    </contour>
    <contour>
      <point x="530" y="509" type="curve" smooth="yes"/>
      <point x="631" y="509"/>
      <point x="684" y="441"/>
      <point x="684" y="315" type="curve" smooth="yes"/>
      <point x="684" y="163"/>
      <point x="599" y="13"/>
      <point x="452" y="13" type="curve" smooth="yes"/>
      <point x="352" y="13"/>
      <point x="297" y="82"/>
      <point x="297" y="208" type="curve" smooth="yes"/>
      <point x="297" y="358"/>
      <point x="380" y="509"/>
    </contour>
    <contour>
      <point x="81" y="0" type="line"/>
      <point x="101" y="0" type="line"/>
      <point x="185" y="525" type="line"/>
      <point x="78" y="520" type="line"/>
      <point x="76" y="505" type="line"/>
      <point x="169" y="492" type="line"/>
      <point x="161" y="502" type="line"/>
    </contour>
  </outline>
</glyph>
<glyph name="Yat-cy" format="2">
  <advance width="687"/>
  <unicode hex="0462"/>
  <guideline x="622" y="698" angle="0"/>
  <outline>
    <contour>
      <point x="117" y="0" type="line"/>
      <point x="341" y="0" type="line" smooth="yes"/>
      <point x="499" y="0"/>
      <point x="616" y="89"/>
      <point x="616" y="224" type="curve" smooth="yes"/>
      <point x="616" y="322"/>
      <point x="554" y="373"/>
      <point x="434" y="373" type="curve" smooth="yes"/>
      <point x="285" y="373" type="line"/>
      <point x="290" y="366" type="line"/>
      <point x="321" y="560" type="line"/>
      <point x="313" y="553" type="line"/>
      <point x="548" y="553" type="line"/>
      <point x="541" y="560" type="line"/>
      <point x="536" y="437" type="line"/>
      <point x="551" y="437" type="line"/>
      <point x="572" y="572" type="line"/>
      <point x="316" y="572" type="line"/>
      <point x="322" y="565" type="line"/>
      <point x="339" y="675" type="line"/>
      <point x="331" y="669" type="line"/>
      <point x="441" y="683" type="line"/>
      <point x="443" y="698" type="line"/>
      <point x="227" y="693" type="line"/>
      <point x="224" y="678" type="line"/>
      <point x="325" y="669" type="line"/>
      <point x="320" y="676" type="line"/>
      <point x="302" y="565" type="line"/>
      <point x="310" y="572" type="line"/>
      <point x="100" y="572" type="line"/>
      <point x="78" y="437" type="line"/>
      <point x="93" y="437" type="line"/>
      <point x="127" y="560" type="line"/>
      <point x="118" y="553" type="line"/>
      <point x="307" y="553" type="line"/>
      <point x="301" y="560" type="line"/>
      <point x="216" y="21" type="line"/>
      <point x="224" y="29" type="line"/>
      <point x="119" y="15" type="line"/>
    </contour>
    <contour>
      <point x="234" y="12" type="line"/>
      <point x="289" y="361" type="line"/>
      <point x="281" y="354" type="line"/>
      <point x="431" y="354" type="line" smooth="yes"/>
      <point x="541" y="354"/>
      <point x="595" y="308"/>
      <point x="595" y="222" type="curve" smooth="yes"/>
      <point x="595" y="102"/>
      <point x="489" y="19"/>
      <point x="344" y="19" type="curve" smooth="yes"/>
      <point x="228" y="19" type="line"/>
    </contour>
  </outline>
</glyph>
<glyph name="Tlinebelow" format="2">
  <advance width="538"/>
  <unicode hex="1E6E"/>
  <guideline x="135" y="190" angle="261"/>
  <guideline x="376" y="190" angle="261"/>
  <outline>
    <contour>
      <point x="324.89" y="-107" type="line"/>
      <point x="97.25999999999999" y="-107" type="line"/>
      <point x="94.16999999999999" y="-128" type="line"/>
      <point x="321.79999999999995" y="-128" type="line"/>
    </contour>
    <component base="T"/>
  </outline>
</glyph>
<glyph name="daggerdbl" format="2">
  <advance width="425"/>
  <unicode hex="2021"/>
  <outline>
    <contour>
      <point x="218" y="496" type="line"/>
      <point x="403" y="509" type="line"/>
      <point x="405" y="522" type="line"/>
      <point x="222" y="522" type="line"/>
      <point x="228" y="513" type="line"/>
      <point x="259" y="696" type="line"/>
      <point x="240" y="696" type="line"/>
      <point x="212" y="513" type="line"/>
      <point x="221" y="522" type="line"/>
      <point x="37" y="522" type="line"/>
      <point x="35" y="509" type="line"/>
    </contour>
    <contour>
      <point x="131" y="-51" type="line"/>
      <point x="141" y="-40" type="line"/>
      <point x="197" y="308" type="line"/>
      <point x="187" y="305" type="line"/>
      <point x="178" y="308" type="line"/>
      <point x="123" y="-40" type="line"/>
    </contour>
    <contour>
      <point x="201" y="388" type="line"/>
      <point x="353" y="416" type="line"/>
      <point x="355" y="429" type="line"/>
      <point x="204" y="411" type="line"/>
      <point x="58" y="429" type="line"/>
      <point x="56" y="416" type="line"/>
    </contour>
  </outline>
</glyph>
<glyph name="guarani" format="2">
  <advance width="770"/>
  <unicode hex="20B2"/>
  <outline>
    <contour>
      <point x="343" y="-6" type="curve" smooth="yes"/>
      <point x="414" y="-6"/>
      <point x="492" y="12"/>
      <point x="577" y="45" type="curve"/>
      <point x="616" y="294" type="line"/>
      <point x="609" y="286" type="line"/>
      <point x="709" y="300" type="line"/>
      <point x="711" y="315" type="line"/>
      <point x="504" y="310" type="line"/>
      <point x="502" y="295" type="line"/>
      <point x="603" y="287" type="line"/>
      <point x="597" y="294" type="line"/>
      <point x="559" y="51" type="line"/>
      <point x="565" y="60" type="line"/>
      <point x="485" y="30"/>
      <point x="413" y="14"/>
      <point x="348" y="14" type="curve" smooth="yes"/>
      <point x="210" y="14"/>
      <point x="120" y="87"/>
      <point x="120" y="270" type="curve" smooth="yes"/>
      <point x="120" y="505"/>
      <point x="269" y="679"/>
      <point x="470" y="679" type="curve" smooth="yes"/>
      <point x="525" y="679"/>
      <point x="586" y="666"/>
      <point x="648" y="637" type="curve"/>
      <point x="643" y="646" type="line"/>
      <point x="634" y="516" type="line"/>
      <point x="649" y="516" type="line"/>
      <point x="674" y="650" type="line"/>
      <point x="602" y="683"/>
      <point x="533" y="699"/>
      <point x="469" y="699" type="curve" smooth="yes"/>
      <point x="255" y="699"/>
      <point x="99" y="517"/>
      <point x="99" y="268" type="curve" smooth="yes"/>
      <point x="99" y="72"/>
      <point x="196" y="-6"/>
    </contour>
    <contour>
      <point x="320" y="-144" type="line"/>
      <point x="340" y="-144" type="line"/>
      <point x="363" y="3" type="line"/>
      <point x="343" y="3" type="line"/>
    </contour>
    <contour>
      <point x="452" y="692" type="line"/>
      <point x="472" y="692" type="line"/>
      <point x="493" y="824" type="line"/>
      <point x="473" y="824" type="line"/>
    </contour>
  </outline>
</glyph>
<glyph name="downArrow" format="2">
  <advance width="649"/>
  <unicode hex="2193"/>
  <outline>
    <contour>
      <point x="318" y="20" type="line"/>
      <point x="424" y="692" type="line"/>
      <point x="405" y="692" type="line"/>
      <point x="299" y="20" type="line"/>
      <point x="310" y="20" type="line"/>
      <point x="74" y="294" type="line"/>
      <point x="61" y="280" type="line"/>
      <point x="300" y="0" type="line"/>
      <point x="313" y="0" type="line"/>
      <point x="640" y="280" type="line"/>
      <point x="629" y="294" type="line"/>
      <point x="306" y="20" type="line"/>
    </contour>
  </outline>
</glyph>
<glyph name="intersection" format="2">
  <advance width="712"/>
  <unicode hex="2229"/>
  <outline>
    <contour>
      <point x="109" y="0" type="line"/>
      <point x="128" y="0" type="line"/>
      <point x="198" y="438" type="line" smooth="yes"/>
      <point x="210" y="515"/>
      <point x="238" y="679"/>
      <point x="425" y="679" type="curve" smooth="yes"/>
      <point x="605" y="679"/>
      <point x="585" y="528"/>
      <point x="572" y="449" type="curve" smooth="yes"/>
      <point x="501" y="0" type="line"/>
      <point x="520" y="0" type="line"/>
      <point x="591" y="447" type="line" smooth="yes"/>
      <point x="604" y="526"/>
      <point x="625" y="698"/>
      <point x="426" y="698" type="curve" smooth="yes"/>
      <point x="221" y="698"/>
      <point x="191" y="516"/>
      <point x="179" y="440" type="curve" smooth="yes"/>
    </contour>
  </outline>
</glyph>
<glyph name="Esdescender-cy.loclBSH" format="2">
  <advance width="644"/>
  <outline>
    <contour>
      <point x="306" y="-6" type="curve" smooth="yes"/>
      <point x="380" y="-6"/>
      <point x="465" y="26"/>
      <point x="550" y="93" type="curve"/>
      <point x="539" y="109" type="line"/>
      <point x="459" y="45"/>
      <point x="378" y="14"/>
      <point x="310" y="14" type="curve" smooth="yes"/>
      <point x="198" y="14"/>
      <point x="116" y="96"/>
      <point x="116" y="262" type="curve" smooth="yes"/>
      <point x="116" y="467"/>
      <point x="240" y="678"/>
      <point x="432" y="678" type="curve" smooth="yes"/>
      <point x="484" y="678"/>
      <point x="551" y="662"/>
      <point x="605" y="638" type="curve"/>
      <point x="599" y="646" type="line"/>
      <point x="588" y="516" type="line"/>
      <point x="603" y="516" type="line"/>
      <point x="628" y="650" type="line"/>
      <point x="562" y="683"/>
      <point x="492" y="698"/>
      <point x="438" y="698" type="curve" smooth="yes"/>
      <point x="231" y="698"/>
      <point x="95" y="484"/>
      <point x="95" y="260" type="curve" smooth="yes"/>
      <point x="95" y="80"/>
      <point x="184" y="-6"/>
    </contour>
    <contour>
      <point x="311" y="-182" type="curve"/>
      <point x="330" y="-182"/>
      <point x="351" y="-164"/>
      <point x="351" y="-123" type="curve" smooth="yes"/>
      <point x="351" y="-83"/>
      <point x="330" y="-37"/>
      <point x="307" y="-6" type="curve"/>
      <point x="282" y="-4" type="line"/>
      <point x="307" y="-36"/>
      <point x="325" y="-73"/>
      <point x="327" y="-114" type="curve"/>
      <point x="334" y="-102" type="line"/>
      <point x="284" y="-150" type="line"/>
      <point x="283" y="-170"/>
      <point x="297" y="-182"/>
    </contour>
  </outline>
</glyph>
<glyph name="Q.alt" format="2">
  <advance width="738"/>
  <anchor x="328" y="0" name="bottom"/>
  <anchor x="437" y="692" name="top"/>
  <outline>
    <contour>
      <point x="587" y="-155" type="curve" smooth="yes"/>
      <point x="614" y="-155"/>
      <point x="642" y="-147"/>
      <point x="678" y="-128" type="curve"/>
      <point x="668" y="-139" type="line"/>
      <point x="654" y="-109" type="line"/>
      <point x="672" y="-108" type="line"/>
      <point x="638" y="-126"/>
      <point x="612" y="-134"/>
      <point x="587" y="-134" type="curve" smooth="yes"/>
      <point x="525" y="-134"/>
      <point x="474" y="-84"/>
      <point x="347" y="-2" type="curve"/>
      <point x="343" y="-5" type="line"/>
      <point x="546" y="8"/>
      <point x="678" y="224"/>
      <point x="678" y="430" type="curve" smooth="yes"/>
      <point x="678" y="616"/>
      <point x="571" y="698"/>
      <point x="441" y="698" type="curve" smooth="yes"/>
      <point x="230" y="698"/>
      <point x="86" y="483"/>
      <point x="86" y="263" type="curve" smooth="yes"/>
      <point x="86" y="73"/>
      <point x="194" y="-6"/>
      <point x="321" y="-6" type="curve"/>
      <point x="311" y="-2" type="line"/>
      <point x="458" y="-98"/>
      <point x="518" y="-155"/>
    </contour>
    <contour>
      <point x="324" y="14" type="curve" smooth="yes"/>
      <point x="203" y="14"/>
      <point x="107" y="93"/>
      <point x="107" y="266" type="curve" smooth="yes"/>
      <point x="107" y="470"/>
      <point x="241" y="678"/>
      <point x="438" y="678" type="curve" smooth="yes"/>
      <point x="559" y="678"/>
      <point x="657" y="599"/>
      <point x="657" y="426" type="curve" smooth="yes"/>
      <point x="657" y="222"/>
      <point x="521" y="14"/>
    </contour>
  </outline>
</glyph>
<glyph name=".notdef" format="2">
  <advance width="414"/>
  <outline>
    <contour>
      <point x="-26" y="-230" type="line"/>
      <point x="282" y="-230" type="line"/>
      <point x="442" y="780" type="line"/>
      <point x="134" y="780" type="line"/>
    </contour>
    <contour>
      <point x="58" y="-161" type="line"/>
      <point x="65" y="-126" type="line"/>
      <point x="140" y="-79" type="line"/>
      <point x="71" y="-79" type="line"/>
      <point x="76" y="-46" type="line"/>
      <point x="238" y="-46" type="line"/>
      <point x="232" y="-79" type="line"/>
      <point x="201" y="-79" type="line"/>
      <point x="124" y="-126" type="line"/>
      <point x="225" y="-126" type="line"/>
      <point x="219" y="-161" type="line"/>
    </contour>
    <contour>
      <point x="80" y="-23" type="line"/>
      <point x="98" y="92" type="line"/>
      <point x="260" y="92" type="line"/>
      <point x="241" y="-23" type="line"/>
    </contour>
    <contour>
      <point x="117" y="10" type="line"/>
      <point x="213" y="10" type="line"/>
      <point x="220" y="57" type="line"/>
      <point x="124" y="57" type="line"/>
    </contour>
    <contour>
      <point x="108" y="152" type="line"/>
      <point x="126" y="265" type="line"/>
      <point x="157" y="265" type="line"/>
      <point x="145" y="185" type="line"/>
      <point x="241" y="185" type="line"/>
      <point x="248" y="232" type="line"/>
      <point x="216" y="232" type="line"/>
      <point x="213" y="209" type="line"/>
      <point x="180" y="209" type="line"/>
      <point x="189" y="265" type="line"/>
      <point x="287" y="265" type="line"/>
      <point x="269" y="152" type="line"/>
    </contour>
    <contour>
      <point x="129" y="289" type="line"/>
      <point x="135" y="323" type="line"/>
      <point x="263" y="323" type="line"/>
      <point x="273" y="389" type="line"/>
      <point x="307" y="389" type="line"/>
      <point x="291" y="289" type="line"/>
    </contour>
    <contour>
      <point x="139" y="346" type="line"/>
      <point x="144" y="379" type="line"/>
      <point x="207" y="379" type="line"/>
      <point x="213" y="416" type="line"/>
      <point x="150" y="416" type="line"/>
      <point x="155" y="449" type="line"/>
      <point x="316" y="449" type="line"/>
      <point x="311" y="416" type="line"/>
      <point x="246" y="416" type="line"/>
      <point x="235" y="346" type="line"/>
    </contour>
    <contour>
      <point x="196" y="512" type="line"/>
      <point x="228" y="512" type="line"/>
      <point x="234" y="548" type="line"/>
      <point x="202" y="548" type="line"/>
    </contour>
    <contour>
      <point x="159" y="476" type="line"/>
      <point x="176" y="582" type="line"/>
      <point x="272" y="582" type="line"/>
      <point x="261" y="512" type="line"/>
      <point x="326" y="512" type="line"/>
      <point x="320" y="476" type="line"/>
    </contour>
    <contour>
      <point x="180" y="608" type="line"/>
      <point x="185" y="641" type="line"/>
      <point x="249" y="641" type="line"/>
      <point x="254" y="678" type="line"/>
      <point x="192" y="678" type="line"/>
      <point x="198" y="713" type="line"/>
      <point x="358" y="713" type="line"/>
      <point x="352" y="678" type="line"/>
      <point x="287" y="678" type="line"/>
      <point x="281" y="641" type="line"/>
      <point x="347" y="641" type="line"/>
      <point x="341" y="608" type="line"/>
    </contour>
  </outline>
</glyph>
<glyph name="ae.sc" format="2">
  <advance width="825"/>
  <guideline x="431" y="231" angle="261"/>
  <guideline x="411" y="234" angle="261"/>
  <guideline x="322" y="234" angle="261"/>
  <anchor x="371" y="0" name="bottom"/>
  <anchor x="564" y="568" name="top"/>
  <outline>
    <contour>
      <point x="-48" y="0" type="line"/>
      <point x="154" y="0" type="line"/>
      <point x="156" y="14" type="line"/>
      <point x="53" y="26" type="line"/>
      <point x="54" y="19" type="line"/>
      <point x="180" y="191" type="line"/>
      <point x="170" y="184" type="line"/>
      <point x="409" y="184" type="line"/>
      <point x="405" y="191" type="line"/>
      <point x="377" y="19" type="line"/>
      <point x="385" y="26" type="line"/>
      <point x="287" y="14" type="line"/>
      <point x="285" y="0" type="line"/>
      <point x="708" y="0" type="line"/>
      <point x="726" y="117" type="line"/>
      <point x="712" y="117" type="line"/>
      <point x="682" y="12" type="line"/>
      <point x="690" y="19" type="line"/>
      <point x="390" y="19" type="line"/>
      <point x="396" y="12" type="line"/>
      <point x="442" y="299" type="line"/>
      <point x="433" y="292" type="line"/>
      <point x="680" y="292" type="line"/>
      <point x="683" y="311" type="line"/>
      <point x="436" y="311" type="line"/>
      <point x="443" y="305" type="line"/>
      <point x="482" y="556" type="line"/>
      <point x="474" y="549" type="line"/>
      <point x="763" y="549" type="line"/>
      <point x="755" y="556" type="line"/>
      <point x="754" y="455" type="line"/>
      <point x="768" y="455" type="line"/>
      <point x="786" y="568" type="line"/>
      <point x="482" y="568" type="line"/>
      <point x="343" y="564" type="line"/>
      <point x="341" y="550" type="line"/>
      <point x="428" y="543" type="line"/>
      <point x="422" y="549" type="line"/>
      <point x="32" y="19" type="line"/>
      <point x="45" y="26" type="line"/>
      <point x="-46" y="14" type="line"/>
    </contour>
    <contour>
      <point x="185" y="197" type="line"/>
      <point x="448" y="556" type="line"/>
      <point x="440" y="549" type="line"/>
      <point x="467" y="549" type="line"/>
      <point x="462" y="556" type="line"/>
      <point x="406" y="197" type="line"/>
      <point x="413" y="203" type="line"/>
      <point x="182" y="203" type="line"/>
    </contour>
  </outline>
</glyph>
<glyph name="circumflexcomb_acutecomb.case" format="2">
  <guideline x="644" y="955" angle="0"/>
  <guideline x="190" y="747" angle="0"/>
  <guideline x="279" y="868" angle="0"/>
  <guideline x="254" y="834" angle="0"/>
  <guideline x="211" y="775" angle="0"/>
  <guideline x="324" y="820" angle="261"/>
  <guideline x="424" y="820" angle="261"/>
  <guideline x="224" y="820" angle="261"/>
  <anchor x="303" y="692" name="_top"/>
  <anchor x="340" y="925" name="top"/>
  <outline>
    <contour>
      <point x="405.47270000000003" y="823.0795" type="line"/>
      <point x="535.3546" y="917.2366" type="line"/>
      <point x="516.8006" y="938.5826000000001" type="line"/>
      <point x="395.4076" y="836.8148" type="line"/>
    </contour>
    <component base="circumflexcomb.case" xOffset="-1" yOffset="-10"/>
  </outline>
</glyph>
<glyph name="esdescender-cy.loclBSH" format="2">
  <advance width="485"/>
  <outline>
    <contour>
      <point x="229" y="-167" type="curve" smooth="yes"/>
      <point x="246" y="-167"/>
      <point x="267" y="-151"/>
      <point x="267" y="-113" type="curve" smooth="yes"/>
      <point x="267" y="-74"/>
      <point x="243" y="-29"/>
      <point x="221" y="0" type="curve"/>
      <point x="196" y="2" type="line"/>
      <point x="225" y="-29"/>
      <point x="243" y="-68"/>
      <point x="245" y="-110" type="curve"/>
      <point x="248" y="-96" type="line"/>
      <point x="204" y="-137" type="line"/>
      <point x="203" y="-156"/>
      <point x="215" y="-167"/>
    </contour>
    <contour>
      <point x="230" y="-6" type="curve" smooth="yes"/>
      <point x="281" y="-6"/>
      <point x="339" y="12"/>
      <point x="395" y="47" type="curve"/>
      <point x="386" y="63" type="line"/>
      <point x="334" y="31"/>
      <point x="281" y="14"/>
      <point x="234" y="14" type="curve" smooth="yes"/>
      <point x="149" y="14"/>
      <point x="85" y="68"/>
      <point x="85" y="198" type="curve" smooth="yes"/>
      <point x="85" y="362"/>
      <point x="188" y="509"/>
      <point x="326" y="509" type="curve" smooth="yes"/>
      <point x="361" y="509"/>
      <point x="398" y="499"/>
      <point x="436" y="479" type="curve"/>
      <point x="432" y="488" type="line"/>
      <point x="428" y="382" type="line"/>
      <point x="446" y="382" type="line"/>
      <point x="464" y="486" type="line"/>
      <point x="418" y="515"/>
      <point x="371" y="528"/>
      <point x="328" y="528" type="curve" smooth="yes"/>
      <point x="181" y="528"/>
      <point x="64" y="378"/>
      <point x="64" y="197" type="curve" smooth="yes"/>
      <point x="64" y="55"/>
      <point x="136" y="-6"/>
    </contour>
  </outline>
</glyph>
<glyph name="exclamdown.sc" format="2">
  <advance width="248"/>
  <outline>
    <contour>
      <point x="156" y="407" type="line"/>
      <point x="138" y="405" type="line"/>
      <point x="73" y="0" type="line"/>
      <point x="96" y="0" type="line"/>
    </contour>
    <contour>
      <point x="172" y="568" type="curve" smooth="yes"/>
      <point x="158" y="568"/>
      <point x="144" y="557"/>
      <point x="144" y="539" type="curve" smooth="yes"/>
      <point x="144" y="523"/>
      <point x="154" y="516"/>
      <point x="165" y="516" type="curve" smooth="yes"/>
      <point x="179" y="516"/>
      <point x="193" y="527"/>
      <point x="193" y="545" type="curve" smooth="yes"/>
      <point x="193" y="558"/>
      <point x="186" y="568"/>
    </contour>
  </outline>
</glyph>
<glyph name="f.alt" format="2">
  <advance width="277"/>
  <outline>
    <contour>
      <point x="-58" y="-236" type="curve" smooth="yes"/>
      <point x="65" y="-236"/>
      <point x="80" y="-133"/>
      <point x="89" y="-76" type="curve" smooth="yes"/>
      <point x="181" y="504" type="line"/>
      <point x="173" y="499" type="line"/>
      <point x="311" y="499" type="line"/>
      <point x="314" y="518" type="line"/>
      <point x="176" y="518" type="line"/>
      <point x="182" y="510" type="line"/>
      <point x="198" y="612" type="line" smooth="yes"/>
      <point x="213" y="707"/>
      <point x="268" y="749"/>
      <point x="340" y="749" type="curve" smooth="yes"/>
      <point x="356" y="749"/>
      <point x="374" y="747"/>
      <point x="393" y="743" type="curve"/>
      <point x="374" y="740" type="line"/>
      <point x="383" y="770" type="line"/>
      <point x="399" y="762" type="line"/>
      <point x="380" y="766"/>
      <point x="361" y="768"/>
      <point x="344" y="768" type="curve" smooth="yes"/>
      <point x="263" y="768"/>
      <point x="195" y="723"/>
      <point x="178" y="613" type="curve" smooth="yes"/>
      <point x="162" y="511" type="line"/>
      <point x="170" y="518" type="line"/>
      <point x="76" y="513" type="line"/>
      <point x="74" y="499" type="line"/>
      <point x="167" y="499" type="line"/>
      <point x="161" y="505" type="line"/>
      <point x="69" y="-77" type="line" smooth="yes"/>
      <point x="57" y="-153"/>
      <point x="43" y="-217"/>
      <point x="-68" y="-217" type="curve" smooth="yes"/>
      <point x="-82" y="-217"/>
      <point x="-85" y="-216"/>
      <point x="-90" y="-216" type="curve"/>
      <point x="-93" y="-234" type="line"/>
      <point x="-81" y="-235"/>
      <point x="-70" y="-236"/>
    </contour>
  </outline>
</glyph>
<glyph name="f_f" format="2">
  <advance width="557"/>
  <guideline x="204" y="651" angle="261"/>
  <guideline x="184" y="651" angle="261"/>
  <outline>
    <contour>
      <point x="-61" y="-236" type="curve" smooth="yes"/>
      <point x="37" y="-236"/>
      <point x="72" y="-181"/>
      <point x="89" y="-74" type="curve" smooth="yes"/>
      <point x="181" y="506" type="line"/>
      <point x="173" y="499" type="line"/>
      <point x="441" y="499" type="line"/>
      <point x="444" y="518" type="line"/>
      <point x="176" y="518" type="line"/>
      <point x="182" y="511" type="line"/>
      <point x="199" y="614" type="line" smooth="yes"/>
      <point x="214" y="704"/>
      <point x="280" y="749"/>
      <point x="357" y="749" type="curve" smooth="yes"/>
      <point x="400" y="749"/>
      <point x="446" y="735"/>
      <point x="488" y="707" type="curve"/>
      <point x="504" y="722" type="line"/>
      <point x="457" y="753"/>
      <point x="405" y="768"/>
      <point x="358" y="768" type="curve" smooth="yes"/>
      <point x="270" y="768"/>
      <point x="196" y="717"/>
      <point x="179" y="615" type="curve" smooth="yes"/>
      <point x="162" y="511" type="line"/>
      <point x="170" y="518" type="line"/>
      <point x="76" y="514" type="line"/>
      <point x="74" y="499" type="line"/>
      <point x="167" y="499" type="line"/>
      <point x="161" y="506" type="line"/>
      <point x="69" y="-76" type="line" smooth="yes"/>
      <point x="54" y="-173"/>
      <point x="26" y="-217"/>
      <point x="-63" y="-217" type="curve" smooth="yes"/>
      <point x="-72" y="-217"/>
      <point x="-81" y="-217"/>
      <point x="-90" y="-216" type="curve"/>
      <point x="-93" y="-234" type="line"/>
      <point x="-82" y="-235"/>
      <point x="-71" y="-236"/>
    </contour>
    <contour>
      <point x="212" y="-236" type="curve" smooth="yes"/>
      <point x="335" y="-236"/>
      <point x="350" y="-133"/>
      <point x="359" y="-76" type="curve" smooth="yes"/>
      <point x="451" y="504" type="line"/>
      <point x="443" y="499" type="line"/>
      <point x="601" y="499" type="line"/>
      <point x="604" y="518" type="line"/>
      <point x="446" y="518" type="line"/>
      <point x="452" y="510" type="line"/>
      <point x="468" y="612" type="line" smooth="yes"/>
      <point x="483" y="707"/>
      <point x="538" y="749"/>
      <point x="610" y="749" type="curve" smooth="yes"/>
      <point x="633" y="749"/>
      <point x="652" y="746"/>
      <point x="669" y="741" type="curve"/>
      <point x="676" y="760" type="line"/>
      <point x="656" y="765"/>
      <point x="638" y="768"/>
      <point x="614" y="768" type="curve" smooth="yes"/>
      <point x="533" y="768"/>
      <point x="465" y="723"/>
      <point x="448" y="613" type="curve" smooth="yes"/>
      <point x="339" y="-77" type="line" smooth="yes"/>
      <point x="329" y="-140"/>
      <point x="316" y="-217"/>
      <point x="206" y="-217" type="curve" smooth="yes"/>
      <point x="193" y="-217"/>
      <point x="183" y="-216"/>
      <point x="180" y="-216" type="curve"/>
      <point x="177" y="-234" type="line"/>
      <point x="189" y="-235"/>
      <point x="200" y="-236"/>
    </contour>
  </outline>
</glyph>
<glyph name="four.osf" format="2">
  <advance width="547"/>
  <outline>
    <contour>
      <point x="338" y="84" type="line"/>
      <point x="306" y="-119" type="line"/>
      <point x="325" y="-119" type="line"/>
      <point x="357" y="84" type="line"/>
      <point x="349" y="77" type="line"/>
      <point x="488" y="77" type="line"/>
      <point x="491" y="97" type="line"/>
      <point x="352" y="97" type="line"/>
      <point x="358" y="90" type="line"/>
      <point x="434" y="573" type="line"/>
      <point x="412" y="582" type="line"/>
      <point x="-1" y="94" type="line"/>
      <point x="1" y="77" type="line"/>
      <point x="343" y="77" type="line"/>
    </contour>
    <contour>
      <point x="347" y="97" type="line"/>
      <point x="18" y="97" type="line"/>
      <point x="20" y="91" type="line"/>
      <point x="417" y="562" type="line"/>
      <point x="414" y="563" type="line"/>
      <point x="339" y="90" type="line"/>
    </contour>
  </outline>
</glyph>
<glyph name="m.sc" format="2">
  <advance width="789"/>
  <guideline x="158" y="231" angle="261"/>
  <guideline x="139" y="234" angle="261"/>
  <guideline x="50" y="234" angle="261"/>
  <guideline x="641" y="231" angle="261"/>
  <guideline x="622" y="234" angle="261"/>
  <guideline x="731" y="231" angle="261"/>
  <guideline x="389" y="234" angle="261"/>
  <anchor x="352" y="0" name="bottom"/>
  <anchor x="442" y="568" name="top"/>
  <outline>
    <contour>
      <point x="781" y="554" type="line"/>
      <point x="783" y="568" type="line"/>
      <point x="667" y="564" type="line"/>
      <point x="371" y="165" type="line"/>
      <point x="377" y="163" type="line"/>
      <point x="213" y="568" type="line"/>
      <point x="102" y="564" type="line"/>
      <point x="100" y="550" type="line"/>
      <point x="193" y="542" type="line"/>
      <point x="189" y="550" type="line"/>
      <point x="105" y="19" type="line"/>
      <point x="112" y="26" type="line"/>
      <point x="15" y="14" type="line"/>
      <point x="13" y="0" type="line"/>
      <point x="219" y="0" type="line"/>
      <point x="221" y="14" type="line"/>
      <point x="118" y="26" type="line"/>
      <point x="124" y="19" type="line"/>
      <point x="208" y="548" type="line"/>
      <point x="200" y="548" type="line"/>
      <point x="362" y="146" type="line"/>
      <point x="380" y="148" type="line"/>
      <point x="677" y="547" type="line"/>
      <point x="672" y="547" type="line"/>
      <point x="588" y="19" type="line"/>
      <point x="594" y="26" type="line"/>
      <point x="488" y="14" type="line"/>
      <point x="486" y="0" type="line"/>
      <point x="694" y="0" type="line"/>
      <point x="697" y="14" type="line"/>
      <point x="601" y="26" type="line"/>
      <point x="607" y="19" type="line"/>
      <point x="691" y="549" type="line"/>
      <point x="682" y="542" type="line"/>
    </contour>
  </outline>
</glyph>
<glyph name="macrongravesingle.case" format="2">
  <advance width="421"/>
  <guideline x="177" y="747" angle="0"/>
  <guideline x="266" y="868" angle="0"/>
  <guideline x="241" y="790" angle="0"/>
  <guideline x="196" y="773" angle="0"/>
  <guideline x="121" y="394" angle="261"/>
  <guideline x="342" y="394" angle="261"/>
  <guideline x="231" y="394" angle="261"/>
  <anchor x="278" y="692" name="_top"/>
  <outline>
    <contour>
      <point x="393.99168" y="790.29744" type="line"/>
      <point x="400.92608" y="805.81952" type="line"/>
      <point x="217.02608" y="898.22" type="line"/>
      <point x="201.9504" y="870.09888" type="line"/>
    </contour>
    <component base="macron" xOffset="10" yOffset="63"/>
  </outline>
</glyph>
<glyph name="questiondown.sc" format="2">
  <advance width="338"/>
  <outline>
    <contour>
      <point x="249" y="438" type="line"/>
      <point x="247" y="419"/>
      <point x="245" y="400"/>
      <point x="244" y="396" type="curve" smooth="yes"/>
      <point x="220" y="257"/>
      <point x="15" y="240"/>
      <point x="15" y="94" type="curve" smooth="yes"/>
      <point x="15" y="20"/>
      <point x="67" y="-7"/>
      <point x="137" y="-7" type="curve" smooth="yes"/>
      <point x="174" y="-7"/>
      <point x="217" y="1"/>
      <point x="259" y="17" type="curve"/>
      <point x="254" y="34" type="line"/>
      <point x="214" y="20"/>
      <point x="173" y="12"/>
      <point x="138" y="12" type="curve" smooth="yes"/>
      <point x="79" y="12"/>
      <point x="36" y="34"/>
      <point x="36" y="97" type="curve" smooth="yes"/>
      <point x="36" y="234"/>
      <point x="241" y="242"/>
      <point x="264" y="399" type="curve" smooth="yes"/>
      <point x="265" y="404"/>
      <point x="268" y="434"/>
      <point x="268" y="437" type="curve"/>
    </contour>
    <contour>
      <point x="267" y="568" type="curve" smooth="yes"/>
      <point x="253" y="568"/>
      <point x="239" y="557"/>
      <point x="239" y="539" type="curve" smooth="yes"/>
      <point x="239" y="523"/>
      <point x="249" y="516"/>
      <point x="260" y="516" type="curve" smooth="yes"/>
      <point x="274" y="516"/>
      <point x="288" y="527"/>
      <point x="288" y="545" type="curve" smooth="yes"/>
      <point x="288" y="558"/>
      <point x="281" y="568"/>
    </contour>
  </outline>
</glyph>
<glyph name="quotedblleft.sc" format="2">
  <advance width="274"/>
  <outline>
    <contour>
      <point x="133" y="487" type="curve" smooth="yes"/>
      <point x="133" y="501"/>
      <point x="124" y="507"/>
      <point x="124" y="520" type="curve" smooth="yes"/>
      <point x="124" y="532"/>
      <point x="132" y="561"/>
      <point x="169" y="616" type="curve"/>
      <point x="158" y="626" type="line"/>
      <point x="124" y="580"/>
      <point x="86" y="516"/>
      <point x="86" y="484" type="curve" smooth="yes"/>
      <point x="86" y="467"/>
      <point x="96" y="459"/>
      <point x="107" y="459" type="curve" smooth="yes"/>
      <point x="120" y="459"/>
      <point x="133" y="469"/>
    </contour>
    <contour>
      <point x="249" y="487" type="curve" smooth="yes"/>
      <point x="249" y="501"/>
      <point x="240" y="507"/>
      <point x="240" y="520" type="curve" smooth="yes"/>
      <point x="240" y="532"/>
      <point x="248" y="561"/>
      <point x="285" y="616" type="curve"/>
      <point x="274" y="626" type="line"/>
      <point x="240" y="580"/>
      <point x="202" y="516"/>
      <point x="202" y="484" type="curve" smooth="yes"/>
      <point x="202" y="467"/>
      <point x="212" y="459"/>
      <point x="223" y="459" type="curve" smooth="yes"/>
      <point x="236" y="459"/>
      <point x="249" y="469"/>
    </contour>
  </outline>
</glyph>
<glyph name="six.dnom" format="2">
  <advance width="354"/>
  <outline>
    <contour>
      <point x="54" y="180" type="line"/>
      <point x="97" y="212"/>
      <point x="145" y="228"/>
      <point x="185" y="228" type="curve" smooth="yes"/>
      <point x="234" y="228"/>
      <point x="272" y="205"/>
      <point x="272" y="145" type="curve" smooth="yes"/>
      <point x="272" y="77"/>
      <point x="222" y="13"/>
      <point x="143" y="13" type="curve" smooth="yes"/>
      <point x="84" y="13"/>
      <point x="54" y="48"/>
      <point x="54" y="132" type="curve" smooth="yes"/>
      <point x="54" y="260"/>
      <point x="123" y="403"/>
      <point x="254" y="403" type="curve" smooth="yes"/>
      <point x="270" y="403"/>
      <point x="289" y="401"/>
      <point x="309" y="396" type="curve"/>
      <point x="314" y="412" type="line"/>
      <point x="293" y="417"/>
      <point x="273" y="420"/>
      <point x="253" y="420" type="curve" smooth="yes"/>
      <point x="114" y="420"/>
      <point x="35" y="270"/>
      <point x="35" y="132" type="curve" smooth="yes"/>
      <point x="35" y="37"/>
      <point x="72" y="-4"/>
      <point x="141" y="-4" type="curve" smooth="yes"/>
      <point x="229" y="-4"/>
      <point x="291" y="64"/>
      <point x="291" y="146" type="curve" smooth="yes"/>
      <point x="291" y="215"/>
      <point x="248" y="244"/>
      <point x="192" y="244" type="curve" smooth="yes"/>
      <point x="151" y="244"/>
      <point x="102" y="231"/>
      <point x="55" y="198" type="curve"/>
    </contour>
  </outline>
</glyph>
<glyph name="verticalbar-cy" format="2">
  <advance width="387"/>
  <outline>
    <contour>
      <point x="132" y="143" type="line"/>
      <point x="151" y="143" type="line"/>
      <point x="194" y="412" type="line"/>
      <point x="175" y="412" type="line"/>
    </contour>
  </outline>
</glyph>
<glyph name="won.BRACKET.70" format="2">
  <advance width="1120"/>
  <outline>
    <contour>
      <point x="297" y="-2" type="line"/>
      <point x="319" y="-2" type="line"/>
      <point x="628" y="662" type="line"/>
      <point x="624" y="662" type="line"/>
      <point x="714" y="-2" type="line"/>
      <point x="735" y="-2" type="line"/>
      <point x="873" y="320" type="line"/>
      <point x="858" y="310" type="line"/>
      <point x="1010" y="310" type="line"/>
      <point x="1013" y="329" type="line"/>
      <point x="858" y="329" type="line"/>
      <point x="727" y="24" type="line"/>
      <point x="731" y="24" type="line"/>
      <point x="639" y="692" type="line"/>
      <point x="621" y="689" type="line"/>
      <point x="311" y="22" type="line"/>
      <point x="314" y="21" type="line"/>
      <point x="284" y="329" type="line"/>
      <point x="126" y="329" type="line"/>
      <point x="123" y="310" type="line"/>
      <point x="279" y="310" type="line"/>
      <point x="266" y="318" type="line"/>
    </contour>
    <contour>
      <point x="139" y="410" type="line"/>
      <point x="276" y="410" type="line"/>
      <point x="251" y="671" type="line"/>
      <point x="245" y="663" type="line"/>
      <point x="367" y="677" type="line"/>
      <point x="369" y="692" type="line"/>
      <point x="142" y="687" type="line"/>
      <point x="139" y="672" type="line"/>
      <point x="239" y="663" type="line"/>
      <point x="231" y="671" type="line"/>
      <point x="256" y="418" type="line"/>
      <point x="269" y="429" type="line"/>
      <point x="142" y="429" type="line"/>
    </contour>
    <contour>
      <point x="893" y="410" type="line"/>
      <point x="1025" y="410" type="line"/>
      <point x="1028" y="429" type="line"/>
      <point x="911" y="429" type="line"/>
      <point x="916" y="419" type="line"/>
      <point x="1024" y="670" type="line"/>
      <point x="1013" y="663" type="line"/>
      <point x="1114" y="677" type="line"/>
      <point x="1117" y="692" type="line"/>
      <point x="894" y="687" type="line"/>
      <point x="892" y="672" type="line"/>
      <point x="1008" y="664" type="line"/>
      <point x="1004" y="670" type="line"/>
    </contour>
  </outline>
</glyph>
<glyph name="y.sc" format="2">
  <advance width="504"/>
  <guideline x="259" y="231" angle="261"/>
  <guideline x="239" y="234" angle="261"/>
  <guideline x="150" y="234" angle="261"/>
  <anchor x="211" y="0" name="bottom"/>
  <anchor x="301" y="568" name="top"/>
  <anchor x="43" y="568" name="topleft"/>
  <outline>
    <contour>
      <point x="116" y="0" type="line"/>
      <point x="305" y="0" type="line"/>
      <point x="308" y="14" type="line"/>
      <point x="218" y="26" type="line"/>
      <point x="225" y="19" type="line"/>
      <point x="257" y="220" type="line"/>
      <point x="250" y="205" type="line"/>
      <point x="481" y="548" type="line"/>
      <point x="472" y="542" type="line"/>
      <point x="557" y="554" type="line"/>
      <point x="559" y="568" type="line"/>
      <point x="366" y="564" type="line"/>
      <point x="364" y="550" type="line"/>
      <point x="465" y="543" type="line"/>
      <point x="462" y="548" type="line"/>
      <point x="245" y="226" type="line"/>
      <point x="250" y="226" type="line"/>
      <point x="135" y="548" type="line"/>
      <point x="132" y="542" type="line"/>
      <point x="236" y="554" type="line"/>
      <point x="238" y="568" type="line"/>
      <point x="42" y="564" type="line"/>
      <point x="40" y="550" type="line"/>
      <point x="123" y="542" type="line"/>
      <point x="117" y="548" type="line"/>
      <point x="238" y="205" type="line"/>
      <point x="237" y="220" type="line"/>
      <point x="205" y="19" type="line"/>
      <point x="212" y="26" type="line"/>
      <point x="118" y="14" type="line"/>
    </contour>
  </outline>
</glyph>
